<?xml version="1.0" encoding="utf-8"?>
<!-- Generator: Adobe Illustrator 23.0.3, SVG Export Plug-In . SVG Version: 6.00 Build 0)  -->
<svg version="1.1" id="Layer_1" xmlns="http://www.w3.org/2000/svg" xmlns:xlink="http://www.w3.org/1999/xlink" x="0px" y="0px"
	 viewBox="0 0 150 150" style="enable-background:new 0 0 150 150;" xml:space="preserve">
<style type="text/css">
	.st0{fill:#E6E6E6;}
</style>
<g>
	<path class="st0" d="M75.08,20.56L91.93,54.7l1.4,2.83l3.12,0.45l37.67,5.47l-27.26,26.57l-2.26,2.2l0.53,3.11l6.44,37.52
		l-33.7-17.72l-2.79-1.47l-2.79,1.47l-33.7,17.72l6.44-37.52l0.53-3.11l-2.26-2.2L16.04,63.45l37.67-5.47l3.12-0.45l1.4-2.83
		L75.08,20.56 M75.08,7L52.85,52.04l-49.7,7.22l35.97,35.06l-8.49,49.5l44.46-23.37l44.46,23.37l-8.49-49.5l35.97-35.06l-49.7-7.22
		L75.08,7L75.08,7z"/>
</g>
</svg>
